<svg xmlns="http://www.w3.org/2000/svg" viewBox="0 0 512 512" role="img" aria-label="PRism">
	<defs>
		<linearGradient id="front" x1="154" x2="322" y1="144" y2="392" gradientUnits="userSpaceOnUse">
			<stop offset="0" stop-color="#f8fafc" />
			<stop offset="0.48" stop-color="#bae6fd" />
			<stop offset="1" stop-color="#38bdf8" />
		</linearGradient>
		<linearGradient id="side" x1="270" x2="402" y1="118" y2="350" gradientUnits="userSpaceOnUse">
			<stop offset="0" stop-color="#93c5fd" />
			<stop offset="1" stop-color="#1d4ed8" />
		</linearGradient>
		<linearGradient id="rainbow" x1="82" x2="424" y1="302" y2="302" gradientUnits="userSpaceOnUse">
			<stop offset="0" stop-color="#f97316" />
			<stop offset="0.2" stop-color="#facc15" />
			<stop offset="0.4" stop-color="#22c55e" />
			<stop offset="0.62" stop-color="#38bdf8" />
			<stop offset="0.82" stop-color="#a855f7" />
			<stop offset="1" stop-color="#ec4899" />
		</linearGradient>
	</defs>
	<rect width="512" height="512" rx="112" fill="#111827" />
	<path d="M82 278h170l172 74H254L82 278Z" fill="url(#rainbow)" opacity="0.9" />
	<path d="M92 246h148" fill="none" stroke="#f8fafc" stroke-linecap="round" stroke-width="22" opacity="0.85" />
	<path d="M248 112 126 368h252L248 112Z" fill="url(#front)" />
	<path d="M248 112 378 368 438 258 310 76 248 112Z" fill="url(#side)" />
	<path d="M126 368 248 112l62-36 128 182-60 110H126Z" fill="none" stroke="#f8fafc" stroke-linejoin="round" stroke-opacity="0.72" stroke-width="16" />
	<path d="M248 112 378 368M310 76 252 226 438 258" fill="none" stroke="#e0f2fe" stroke-linecap="round" stroke-linejoin="round" stroke-opacity="0.55" stroke-width="10" />
	<path d="M180 328h150l-82-162-68 162Z" fill="#ffffff" opacity="0.18" />
</svg>
